<svg xmlns="http://www.w3.org/2000/svg" width="765" height="205" viewBox="0 0 765 205" role="img" aria-label="Sua constância nos desafios">
  <rect width="765" height="205" rx="16" fill="#0b1220"/>
  <text x="20" y="30" fill="#f8fafc" font-family="Segoe UI, Helvetica, Arial, sans-serif" font-size="16" font-weight="700">Sua constância</text>
  <text x="20" y="48" fill="#94a3b8" font-family="Segoe UI, Helvetica, Arial, sans-serif" font-size="11">Dias em que você praticou desafios</text>
  <rect x="20" y="62" width="11" height="11" rx="2" fill="#1e293b" stroke="#2a3548" stroke-width="1"/>
  <rect x="20" y="76" width="11" height="11" rx="2" fill="#1e293b" stroke="#2a3548" stroke-width="1"/>
  <rect x="20" y="90" width="11" height="11" rx="2" fill="#1e293b" stroke="#2a3548" stroke-width="1"/>
  <rect x="20" y="104" width="11" height="11" rx="2" fill="#1e293b" stroke="#2a3548" stroke-width="1"/>
  <rect x="20" y="118" width="11" height="11" rx="2" fill="#1e293b" stroke="#2a3548" stroke-width="1"/>
  <rect x="20" y="132" width="11" height="11" rx="2" fill="#1e293b" stroke="#2a3548" stroke-width="1"/>
  <rect x="20" y="146" width="11" height="11" rx="2" fill="#1e293b" stroke="#2a3548" stroke-width="1"/>
  <rect x="34" y="62" width="11" height="11" rx="2" fill="#1e293b" stroke="#2a3548" stroke-width="1"/>
  <rect x="34" y="76" width="11" height="11" rx="2" fill="#1e293b" stroke="#2a3548" stroke-width="1"/>
  <rect x="34" y="90" width="11" height="11" rx="2" fill="#1e293b" stroke="#2a3548" stroke-width="1"/>
  <rect x="34" y="104" width="11" height="11" rx="2" fill="#1e293b" stroke="#2a3548" stroke-width="1"/>
  <rect x="34" y="118" width="11" height="11" rx="2" fill="#1e293b" stroke="#2a3548" stroke-width="1"/>
  <rect x="34" y="132" width="11" height="11" rx="2" fill="#1e293b" stroke="#2a3548" stroke-width="1"/>
  <rect x="34" y="146" width="11" height="11" rx="2" fill="#1e293b" stroke="#2a3548" stroke-width="1"/>
  <rect x="48" y="62" width="11" height="11" rx="2" fill="#1e293b" stroke="#2a3548" stroke-width="1"/>
  <rect x="48" y="76" width="11" height="11" rx="2" fill="#1e293b" stroke="#2a3548" stroke-width="1"/>
  <rect x="48" y="90" width="11" height="11" rx="2" fill="#1e293b" stroke="#2a3548" stroke-width="1"/>
  <rect x="48" y="104" width="11" height="11" rx="2" fill="#1e293b" stroke="#2a3548" stroke-width="1"/>
  <rect x="48" y="118" width="11" height="11" rx="2" fill="#1e293b" stroke="#2a3548" stroke-width="1"/>
  <rect x="48" y="132" width="11" height="11" rx="2" fill="#1e293b" stroke="#2a3548" stroke-width="1"/>
  <rect x="48" y="146" width="11" height="11" rx="2" fill="#1e293b" stroke="#2a3548" stroke-width="1"/>
  <rect x="62" y="62" width="11" height="11" rx="2" fill="#1e293b" stroke="#2a3548" stroke-width="1"/>
  <rect x="62" y="76" width="11" height="11" rx="2" fill="#1e293b" stroke="#2a3548" stroke-width="1"/>
  <rect x="62" y="90" width="11" height="11" rx="2" fill="#1e293b" stroke="#2a3548" stroke-width="1"/>
  <rect x="62" y="104" width="11" height="11" rx="2" fill="#1e293b" stroke="#2a3548" stroke-width="1"/>
  <rect x="62" y="118" width="11" height="11" rx="2" fill="#1e293b" stroke="#2a3548" stroke-width="1"/>
  <rect x="62" y="132" width="11" height="11" rx="2" fill="#1e293b" stroke="#2a3548" stroke-width="1"/>
  <rect x="62" y="146" width="11" height="11" rx="2" fill="#1e293b" stroke="#2a3548" stroke-width="1"/>
  <rect x="76" y="62" width="11" height="11" rx="2" fill="#1e293b" stroke="#2a3548" stroke-width="1"/>
  <rect x="76" y="76" width="11" height="11" rx="2" fill="#1e293b" stroke="#2a3548" stroke-width="1"/>
  <rect x="76" y="90" width="11" height="11" rx="2" fill="#1e293b" stroke="#2a3548" stroke-width="1"/>
  <rect x="76" y="104" width="11" height="11" rx="2" fill="#1e293b" stroke="#2a3548" stroke-width="1"/>
  <rect x="76" y="118" width="11" height="11" rx="2" fill="#1e293b" stroke="#2a3548" stroke-width="1"/>
  <rect x="76" y="132" width="11" height="11" rx="2" fill="#1e293b" stroke="#2a3548" stroke-width="1"/>
  <rect x="76" y="146" width="11" height="11" rx="2" fill="#1e293b" stroke="#2a3548" stroke-width="1"/>
  <rect x="90" y="62" width="11" height="11" rx="2" fill="#1e293b" stroke="#2a3548" stroke-width="1"/>
  <rect x="90" y="76" width="11" height="11" rx="2" fill="#1e293b" stroke="#2a3548" stroke-width="1"/>
  <rect x="90" y="90" width="11" height="11" rx="2" fill="#1e293b" stroke="#2a3548" stroke-width="1"/>
  <rect x="90" y="104" width="11" height="11" rx="2" fill="#1e293b" stroke="#2a3548" stroke-width="1"/>
  <rect x="90" y="118" width="11" height="11" rx="2" fill="#1e293b" stroke="#2a3548" stroke-width="1"/>
  <rect x="90" y="132" width="11" height="11" rx="2" fill="#1e293b" stroke="#2a3548" stroke-width="1"/>
  <rect x="90" y="146" width="11" height="11" rx="2" fill="#1e293b" stroke="#2a3548" stroke-width="1"/>
  <rect x="104" y="62" width="11" height="11" rx="2" fill="#1e293b" stroke="#2a3548" stroke-width="1"/>
  <rect x="104" y="76" width="11" height="11" rx="2" fill="#1e293b" stroke="#2a3548" stroke-width="1"/>
  <rect x="104" y="90" width="11" height="11" rx="2" fill="#1e293b" stroke="#2a3548" stroke-width="1"/>
  <rect x="104" y="104" width="11" height="11" rx="2" fill="#1e293b" stroke="#2a3548" stroke-width="1"/>
  <rect x="104" y="118" width="11" height="11" rx="2" fill="#1e293b" stroke="#2a3548" stroke-width="1"/>
  <rect x="104" y="132" width="11" height="11" rx="2" fill="#1e293b" stroke="#2a3548" stroke-width="1"/>
  <rect x="104" y="146" width="11" height="11" rx="2" fill="#1e293b" stroke="#2a3548" stroke-width="1"/>
  <rect x="118" y="62" width="11" height="11" rx="2" fill="#1e293b" stroke="#2a3548" stroke-width="1"/>
  <rect x="118" y="76" width="11" height="11" rx="2" fill="#1e293b" stroke="#2a3548" stroke-width="1"/>
  <rect x="118" y="90" width="11" height="11" rx="2" fill="#1e293b" stroke="#2a3548" stroke-width="1"/>
  <rect x="118" y="104" width="11" height="11" rx="2" fill="#1e293b" stroke="#2a3548" stroke-width="1"/>
  <rect x="118" y="118" width="11" height="11" rx="2" fill="#1e293b" stroke="#2a3548" stroke-width="1"/>
  <rect x="118" y="132" width="11" height="11" rx="2" fill="#1e293b" stroke="#2a3548" stroke-width="1"/>
  <rect x="118" y="146" width="11" height="11" rx="2" fill="#1e293b" stroke="#2a3548" stroke-width="1"/>
  <rect x="132" y="62" width="11" height="11" rx="2" fill="#1e293b" stroke="#2a3548" stroke-width="1"/>
  <rect x="132" y="76" width="11" height="11" rx="2" fill="#1e293b" stroke="#2a3548" stroke-width="1"/>
  <rect x="132" y="90" width="11" height="11" rx="2" fill="#1e293b" stroke="#2a3548" stroke-width="1"/>
  <rect x="132" y="104" width="11" height="11" rx="2" fill="#1e293b" stroke="#2a3548" stroke-width="1"/>
  <rect x="132" y="118" width="11" height="11" rx="2" fill="#1e293b" stroke="#2a3548" stroke-width="1"/>
  <rect x="132" y="132" width="11" height="11" rx="2" fill="#1e293b" stroke="#2a3548" stroke-width="1"/>
  <rect x="132" y="146" width="11" height="11" rx="2" fill="#1e293b" stroke="#2a3548" stroke-width="1"/>
  <rect x="146" y="62" width="11" height="11" rx="2" fill="#1e293b" stroke="#2a3548" stroke-width="1"/>
  <rect x="146" y="76" width="11" height="11" rx="2" fill="#1e293b" stroke="#2a3548" stroke-width="1"/>
  <rect x="146" y="90" width="11" height="11" rx="2" fill="#1e293b" stroke="#2a3548" stroke-width="1"/>
  <rect x="146" y="104" width="11" height="11" rx="2" fill="#1e293b" stroke="#2a3548" stroke-width="1"/>
  <rect x="146" y="118" width="11" height="11" rx="2" fill="#1e293b" stroke="#2a3548" stroke-width="1"/>
  <rect x="146" y="132" width="11" height="11" rx="2" fill="#1e293b" stroke="#2a3548" stroke-width="1"/>
  <rect x="146" y="146" width="11" height="11" rx="2" fill="#1e293b" stroke="#2a3548" stroke-width="1"/>
  <rect x="160" y="62" width="11" height="11" rx="2" fill="#1e293b" stroke="#2a3548" stroke-width="1"/>
  <rect x="160" y="76" width="11" height="11" rx="2" fill="#1e293b" stroke="#2a3548" stroke-width="1"/>
  <rect x="160" y="90" width="11" height="11" rx="2" fill="#1e293b" stroke="#2a3548" stroke-width="1"/>
  <rect x="160" y="104" width="11" height="11" rx="2" fill="#1e293b" stroke="#2a3548" stroke-width="1"/>
  <rect x="160" y="118" width="11" height="11" rx="2" fill="#1e293b" stroke="#2a3548" stroke-width="1"/>
  <rect x="160" y="132" width="11" height="11" rx="2" fill="#1e293b" stroke="#2a3548" stroke-width="1"/>
  <rect x="160" y="146" width="11" height="11" rx="2" fill="#1e293b" stroke="#2a3548" stroke-width="1"/>
  <rect x="174" y="62" width="11" height="11" rx="2" fill="#1e293b" stroke="#2a3548" stroke-width="1"/>
  <rect x="174" y="76" width="11" height="11" rx="2" fill="#1e293b" stroke="#2a3548" stroke-width="1"/>
  <rect x="174" y="90" width="11" height="11" rx="2" fill="#1e293b" stroke="#2a3548" stroke-width="1"/>
  <rect x="174" y="104" width="11" height="11" rx="2" fill="#1e293b" stroke="#2a3548" stroke-width="1"/>
  <rect x="174" y="118" width="11" height="11" rx="2" fill="#1e293b" stroke="#2a3548" stroke-width="1"/>
  <rect x="174" y="132" width="11" height="11" rx="2" fill="#1e293b" stroke="#2a3548" stroke-width="1"/>
  <rect x="174" y="146" width="11" height="11" rx="2" fill="#1e293b" stroke="#2a3548" stroke-width="1"/>
  <rect x="188" y="62" width="11" height="11" rx="2" fill="#1e293b" stroke="#2a3548" stroke-width="1"/>
  <rect x="188" y="76" width="11" height="11" rx="2" fill="#1e293b" stroke="#2a3548" stroke-width="1"/>
  <rect x="188" y="90" width="11" height="11" rx="2" fill="#1e293b" stroke="#2a3548" stroke-width="1"/>
  <rect x="188" y="104" width="11" height="11" rx="2" fill="#1e293b" stroke="#2a3548" stroke-width="1"/>
  <rect x="188" y="118" width="11" height="11" rx="2" fill="#1e293b" stroke="#2a3548" stroke-width="1"/>
  <rect x="188" y="132" width="11" height="11" rx="2" fill="#1e293b" stroke="#2a3548" stroke-width="1"/>
  <rect x="188" y="146" width="11" height="11" rx="2" fill="#1e293b" stroke="#2a3548" stroke-width="1"/>
  <rect x="202" y="62" width="11" height="11" rx="2" fill="#1e293b" stroke="#2a3548" stroke-width="1"/>
  <rect x="202" y="76" width="11" height="11" rx="2" fill="#1e293b" stroke="#2a3548" stroke-width="1"/>
  <rect x="202" y="90" width="11" height="11" rx="2" fill="#1e293b" stroke="#2a3548" stroke-width="1"/>
  <rect x="202" y="104" width="11" height="11" rx="2" fill="#1e293b" stroke="#2a3548" stroke-width="1"/>
  <rect x="202" y="118" width="11" height="11" rx="2" fill="#1e293b" stroke="#2a3548" stroke-width="1"/>
  <rect x="202" y="132" width="11" height="11" rx="2" fill="#1e293b" stroke="#2a3548" stroke-width="1"/>
  <rect x="202" y="146" width="11" height="11" rx="2" fill="#1e293b" stroke="#2a3548" stroke-width="1"/>
  <rect x="216" y="62" width="11" height="11" rx="2" fill="#1e293b" stroke="#2a3548" stroke-width="1"/>
  <rect x="216" y="76" width="11" height="11" rx="2" fill="#1e293b" stroke="#2a3548" stroke-width="1"/>
  <rect x="216" y="90" width="11" height="11" rx="2" fill="#1e293b" stroke="#2a3548" stroke-width="1"/>
  <rect x="216" y="104" width="11" height="11" rx="2" fill="#1e293b" stroke="#2a3548" stroke-width="1"/>
  <rect x="216" y="118" width="11" height="11" rx="2" fill="#1e293b" stroke="#2a3548" stroke-width="1"/>
  <rect x="216" y="132" width="11" height="11" rx="2" fill="#1e293b" stroke="#2a3548" stroke-width="1"/>
  <rect x="216" y="146" width="11" height="11" rx="2" fill="#1e293b" stroke="#2a3548" stroke-width="1"/>
  <rect x="230" y="62" width="11" height="11" rx="2" fill="#1e293b" stroke="#2a3548" stroke-width="1"/>
  <rect x="230" y="76" width="11" height="11" rx="2" fill="#1e293b" stroke="#2a3548" stroke-width="1"/>
  <rect x="230" y="90" width="11" height="11" rx="2" fill="#1e293b" stroke="#2a3548" stroke-width="1"/>
  <rect x="230" y="104" width="11" height="11" rx="2" fill="#1e293b" stroke="#2a3548" stroke-width="1"/>
  <rect x="230" y="118" width="11" height="11" rx="2" fill="#1e293b" stroke="#2a3548" stroke-width="1"/>
  <rect x="230" y="132" width="11" height="11" rx="2" fill="#1e293b" stroke="#2a3548" stroke-width="1"/>
  <rect x="230" y="146" width="11" height="11" rx="2" fill="#1e293b" stroke="#2a3548" stroke-width="1"/>
  <rect x="244" y="62" width="11" height="11" rx="2" fill="#1e293b" stroke="#2a3548" stroke-width="1"/>
  <rect x="244" y="76" width="11" height="11" rx="2" fill="#1e293b" stroke="#2a3548" stroke-width="1"/>
  <rect x="244" y="90" width="11" height="11" rx="2" fill="#1e293b" stroke="#2a3548" stroke-width="1"/>
  <rect x="244" y="104" width="11" height="11" rx="2" fill="#1e293b" stroke="#2a3548" stroke-width="1"/>
  <rect x="244" y="118" width="11" height="11" rx="2" fill="#1e293b" stroke="#2a3548" stroke-width="1"/>
  <rect x="244" y="132" width="11" height="11" rx="2" fill="#1e293b" stroke="#2a3548" stroke-width="1"/>
  <rect x="244" y="146" width="11" height="11" rx="2" fill="#1e293b" stroke="#2a3548" stroke-width="1"/>
  <rect x="258" y="62" width="11" height="11" rx="2" fill="#1e293b" stroke="#2a3548" stroke-width="1"/>
  <rect x="258" y="76" width="11" height="11" rx="2" fill="#1e293b" stroke="#2a3548" stroke-width="1"/>
  <rect x="258" y="90" width="11" height="11" rx="2" fill="#1e293b" stroke="#2a3548" stroke-width="1"/>
  <rect x="258" y="104" width="11" height="11" rx="2" fill="#1e293b" stroke="#2a3548" stroke-width="1"/>
  <rect x="258" y="118" width="11" height="11" rx="2" fill="#1e293b" stroke="#2a3548" stroke-width="1"/>
  <rect x="258" y="132" width="11" height="11" rx="2" fill="#1e293b" stroke="#2a3548" stroke-width="1"/>
  <rect x="258" y="146" width="11" height="11" rx="2" fill="#1e293b" stroke="#2a3548" stroke-width="1"/>
  <rect x="272" y="62" width="11" height="11" rx="2" fill="#1e293b" stroke="#2a3548" stroke-width="1"/>
  <rect x="272" y="76" width="11" height="11" rx="2" fill="#1e293b" stroke="#2a3548" stroke-width="1"/>
  <rect x="272" y="90" width="11" height="11" rx="2" fill="#1e293b" stroke="#2a3548" stroke-width="1"/>
  <rect x="272" y="104" width="11" height="11" rx="2" fill="#1e293b" stroke="#2a3548" stroke-width="1"/>
  <rect x="272" y="118" width="11" height="11" rx="2" fill="#1e293b" stroke="#2a3548" stroke-width="1"/>
  <rect x="272" y="132" width="11" height="11" rx="2" fill="#1e293b" stroke="#2a3548" stroke-width="1"/>
  <rect x="272" y="146" width="11" height="11" rx="2" fill="#1e293b" stroke="#2a3548" stroke-width="1"/>
  <rect x="286" y="62" width="11" height="11" rx="2" fill="#1e293b" stroke="#2a3548" stroke-width="1"/>
  <rect x="286" y="76" width="11" height="11" rx="2" fill="#1e293b" stroke="#2a3548" stroke-width="1"/>
  <rect x="286" y="90" width="11" height="11" rx="2" fill="#1e293b" stroke="#2a3548" stroke-width="1"/>
  <rect x="286" y="104" width="11" height="11" rx="2" fill="#1e293b" stroke="#2a3548" stroke-width="1"/>
  <rect x="286" y="118" width="11" height="11" rx="2" fill="#1e293b" stroke="#2a3548" stroke-width="1"/>
  <rect x="286" y="132" width="11" height="11" rx="2" fill="#1e293b" stroke="#2a3548" stroke-width="1"/>
  <rect x="286" y="146" width="11" height="11" rx="2" fill="#1e293b" stroke="#2a3548" stroke-width="1"/>
  <rect x="300" y="62" width="11" height="11" rx="2" fill="#1e293b" stroke="#2a3548" stroke-width="1"/>
  <rect x="300" y="76" width="11" height="11" rx="2" fill="#1e293b" stroke="#2a3548" stroke-width="1"/>
  <rect x="300" y="90" width="11" height="11" rx="2" fill="#1e293b" stroke="#2a3548" stroke-width="1"/>
  <rect x="300" y="104" width="11" height="11" rx="2" fill="#1e293b" stroke="#2a3548" stroke-width="1"/>
  <rect x="300" y="118" width="11" height="11" rx="2" fill="#1e293b" stroke="#2a3548" stroke-width="1"/>
  <rect x="300" y="132" width="11" height="11" rx="2" fill="#1e293b" stroke="#2a3548" stroke-width="1"/>
  <rect x="300" y="146" width="11" height="11" rx="2" fill="#1e293b" stroke="#2a3548" stroke-width="1"/>
  <rect x="314" y="62" width="11" height="11" rx="2" fill="#1e293b" stroke="#2a3548" stroke-width="1"/>
  <rect x="314" y="76" width="11" height="11" rx="2" fill="#1e293b" stroke="#2a3548" stroke-width="1"/>
  <rect x="314" y="90" width="11" height="11" rx="2" fill="#1e293b" stroke="#2a3548" stroke-width="1"/>
  <rect x="314" y="104" width="11" height="11" rx="2" fill="#1e293b" stroke="#2a3548" stroke-width="1"/>
  <rect x="314" y="118" width="11" height="11" rx="2" fill="#1e293b" stroke="#2a3548" stroke-width="1"/>
  <rect x="314" y="132" width="11" height="11" rx="2" fill="#1e293b" stroke="#2a3548" stroke-width="1"/>
  <rect x="314" y="146" width="11" height="11" rx="2" fill="#1e293b" stroke="#2a3548" stroke-width="1"/>
  <rect x="328" y="62" width="11" height="11" rx="2" fill="#1e293b" stroke="#2a3548" stroke-width="1"/>
  <rect x="328" y="76" width="11" height="11" rx="2" fill="#1e293b" stroke="#2a3548" stroke-width="1"/>
  <rect x="328" y="90" width="11" height="11" rx="2" fill="#1e293b" stroke="#2a3548" stroke-width="1"/>
  <rect x="328" y="104" width="11" height="11" rx="2" fill="#1e293b" stroke="#2a3548" stroke-width="1"/>
  <rect x="328" y="118" width="11" height="11" rx="2" fill="#1e293b" stroke="#2a3548" stroke-width="1"/>
  <rect x="328" y="132" width="11" height="11" rx="2" fill="#1e293b" stroke="#2a3548" stroke-width="1"/>
  <rect x="328" y="146" width="11" height="11" rx="2" fill="#1e293b" stroke="#2a3548" stroke-width="1"/>
  <rect x="342" y="62" width="11" height="11" rx="2" fill="#1e293b" stroke="#2a3548" stroke-width="1"/>
  <rect x="342" y="76" width="11" height="11" rx="2" fill="#1e293b" stroke="#2a3548" stroke-width="1"/>
  <rect x="342" y="90" width="11" height="11" rx="2" fill="#1e293b" stroke="#2a3548" stroke-width="1"/>
  <rect x="342" y="104" width="11" height="11" rx="2" fill="#1e293b" stroke="#2a3548" stroke-width="1"/>
  <rect x="342" y="118" width="11" height="11" rx="2" fill="#1e293b" stroke="#2a3548" stroke-width="1"/>
  <rect x="342" y="132" width="11" height="11" rx="2" fill="#1e293b" stroke="#2a3548" stroke-width="1"/>
  <rect x="342" y="146" width="11" height="11" rx="2" fill="#1e293b" stroke="#2a3548" stroke-width="1"/>
  <rect x="356" y="62" width="11" height="11" rx="2" fill="#1e293b" stroke="#2a3548" stroke-width="1"/>
  <rect x="356" y="76" width="11" height="11" rx="2" fill="#1e293b" stroke="#2a3548" stroke-width="1"/>
  <rect x="356" y="90" width="11" height="11" rx="2" fill="#1e293b" stroke="#2a3548" stroke-width="1"/>
  <rect x="356" y="104" width="11" height="11" rx="2" fill="#1e293b" stroke="#2a3548" stroke-width="1"/>
  <rect x="356" y="118" width="11" height="11" rx="2" fill="#1e293b" stroke="#2a3548" stroke-width="1"/>
  <rect x="356" y="132" width="11" height="11" rx="2" fill="#1e293b" stroke="#2a3548" stroke-width="1"/>
  <rect x="356" y="146" width="11" height="11" rx="2" fill="#1e293b" stroke="#2a3548" stroke-width="1"/>
  <rect x="370" y="62" width="11" height="11" rx="2" fill="#1e293b" stroke="#2a3548" stroke-width="1"/>
  <rect x="370" y="76" width="11" height="11" rx="2" fill="#1e293b" stroke="#2a3548" stroke-width="1"/>
  <rect x="370" y="90" width="11" height="11" rx="2" fill="#1e293b" stroke="#2a3548" stroke-width="1"/>
  <rect x="370" y="104" width="11" height="11" rx="2" fill="#1e293b" stroke="#2a3548" stroke-width="1"/>
  <rect x="370" y="118" width="11" height="11" rx="2" fill="#1e293b" stroke="#2a3548" stroke-width="1"/>
  <rect x="370" y="132" width="11" height="11" rx="2" fill="#1e293b" stroke="#2a3548" stroke-width="1"/>
  <rect x="370" y="146" width="11" height="11" rx="2" fill="#1e293b" stroke="#2a3548" stroke-width="1"/>
  <rect x="384" y="62" width="11" height="11" rx="2" fill="#1e293b" stroke="#2a3548" stroke-width="1"/>
  <rect x="384" y="76" width="11" height="11" rx="2" fill="#1e293b" stroke="#2a3548" stroke-width="1"/>
  <rect x="384" y="90" width="11" height="11" rx="2" fill="#1e293b" stroke="#2a3548" stroke-width="1"/>
  <rect x="384" y="104" width="11" height="11" rx="2" fill="#1e293b" stroke="#2a3548" stroke-width="1"/>
  <rect x="384" y="118" width="11" height="11" rx="2" fill="#1e293b" stroke="#2a3548" stroke-width="1"/>
  <rect x="384" y="132" width="11" height="11" rx="2" fill="#1e293b" stroke="#2a3548" stroke-width="1"/>
  <rect x="384" y="146" width="11" height="11" rx="2" fill="#1e293b" stroke="#2a3548" stroke-width="1"/>
  <rect x="398" y="62" width="11" height="11" rx="2" fill="#1e293b" stroke="#2a3548" stroke-width="1"/>
  <rect x="398" y="76" width="11" height="11" rx="2" fill="#1e293b" stroke="#2a3548" stroke-width="1"/>
  <rect x="398" y="90" width="11" height="11" rx="2" fill="#1e293b" stroke="#2a3548" stroke-width="1"/>
  <rect x="398" y="104" width="11" height="11" rx="2" fill="#1e293b" stroke="#2a3548" stroke-width="1"/>
  <rect x="398" y="118" width="11" height="11" rx="2" fill="#1e293b" stroke="#2a3548" stroke-width="1"/>
  <rect x="398" y="132" width="11" height="11" rx="2" fill="#1e293b" stroke="#2a3548" stroke-width="1"/>
  <rect x="398" y="146" width="11" height="11" rx="2" fill="#1e293b" stroke="#2a3548" stroke-width="1"/>
  <rect x="412" y="62" width="11" height="11" rx="2" fill="#1e293b" stroke="#2a3548" stroke-width="1"/>
  <rect x="412" y="76" width="11" height="11" rx="2" fill="#1e293b" stroke="#2a3548" stroke-width="1"/>
  <rect x="412" y="90" width="11" height="11" rx="2" fill="#1e293b" stroke="#2a3548" stroke-width="1"/>
  <rect x="412" y="104" width="11" height="11" rx="2" fill="#1e293b" stroke="#2a3548" stroke-width="1"/>
  <rect x="412" y="118" width="11" height="11" rx="2" fill="#1e293b" stroke="#2a3548" stroke-width="1"/>
  <rect x="412" y="132" width="11" height="11" rx="2" fill="#1e293b" stroke="#2a3548" stroke-width="1"/>
  <rect x="412" y="146" width="11" height="11" rx="2" fill="#1e293b" stroke="#2a3548" stroke-width="1"/>
  <rect x="426" y="62" width="11" height="11" rx="2" fill="#1e293b" stroke="#2a3548" stroke-width="1"/>
  <rect x="426" y="76" width="11" height="11" rx="2" fill="#1e293b" stroke="#2a3548" stroke-width="1"/>
  <rect x="426" y="90" width="11" height="11" rx="2" fill="#1e293b" stroke="#2a3548" stroke-width="1"/>
  <rect x="426" y="104" width="11" height="11" rx="2" fill="#1e293b" stroke="#2a3548" stroke-width="1"/>
  <rect x="426" y="118" width="11" height="11" rx="2" fill="#1e293b" stroke="#2a3548" stroke-width="1"/>
  <rect x="426" y="132" width="11" height="11" rx="2" fill="#1e293b" stroke="#2a3548" stroke-width="1"/>
  <rect x="426" y="146" width="11" height="11" rx="2" fill="#1e293b" stroke="#2a3548" stroke-width="1"/>
  <rect x="440" y="62" width="11" height="11" rx="2" fill="#1e293b" stroke="#2a3548" stroke-width="1"/>
  <rect x="440" y="76" width="11" height="11" rx="2" fill="#1e293b" stroke="#2a3548" stroke-width="1"/>
  <rect x="440" y="90" width="11" height="11" rx="2" fill="#1e293b" stroke="#2a3548" stroke-width="1"/>
  <rect x="440" y="104" width="11" height="11" rx="2" fill="#1e293b" stroke="#2a3548" stroke-width="1"/>
  <rect x="440" y="118" width="11" height="11" rx="2" fill="#1e293b" stroke="#2a3548" stroke-width="1"/>
  <rect x="440" y="132" width="11" height="11" rx="2" fill="#1e293b" stroke="#2a3548" stroke-width="1"/>
  <rect x="440" y="146" width="11" height="11" rx="2" fill="#1e293b" stroke="#2a3548" stroke-width="1"/>
  <rect x="454" y="62" width="11" height="11" rx="2" fill="#1e293b" stroke="#2a3548" stroke-width="1"/>
  <rect x="454" y="76" width="11" height="11" rx="2" fill="#1e293b" stroke="#2a3548" stroke-width="1"/>
  <rect x="454" y="90" width="11" height="11" rx="2" fill="#1e293b" stroke="#2a3548" stroke-width="1"/>
  <rect x="454" y="104" width="11" height="11" rx="2" fill="#1e293b" stroke="#2a3548" stroke-width="1"/>
  <rect x="454" y="118" width="11" height="11" rx="2" fill="#1e293b" stroke="#2a3548" stroke-width="1"/>
  <rect x="454" y="132" width="11" height="11" rx="2" fill="#1e293b" stroke="#2a3548" stroke-width="1"/>
  <rect x="454" y="146" width="11" height="11" rx="2" fill="#1e293b" stroke="#2a3548" stroke-width="1"/>
  <rect x="468" y="62" width="11" height="11" rx="2" fill="#1e293b" stroke="#2a3548" stroke-width="1"/>
  <rect x="468" y="76" width="11" height="11" rx="2" fill="#1e293b" stroke="#2a3548" stroke-width="1"/>
  <rect x="468" y="90" width="11" height="11" rx="2" fill="#1e293b" stroke="#2a3548" stroke-width="1"/>
  <rect x="468" y="104" width="11" height="11" rx="2" fill="#1e293b" stroke="#2a3548" stroke-width="1"/>
  <rect x="468" y="118" width="11" height="11" rx="2" fill="#1e293b" stroke="#2a3548" stroke-width="1"/>
  <rect x="468" y="132" width="11" height="11" rx="2" fill="#1e293b" stroke="#2a3548" stroke-width="1"/>
  <rect x="468" y="146" width="11" height="11" rx="2" fill="#1e293b" stroke="#2a3548" stroke-width="1"/>
  <rect x="482" y="62" width="11" height="11" rx="2" fill="#1e293b" stroke="#2a3548" stroke-width="1"/>
  <rect x="482" y="76" width="11" height="11" rx="2" fill="#1e293b" stroke="#2a3548" stroke-width="1"/>
  <rect x="482" y="90" width="11" height="11" rx="2" fill="#1e293b" stroke="#2a3548" stroke-width="1"/>
  <rect x="482" y="104" width="11" height="11" rx="2" fill="#1e293b" stroke="#2a3548" stroke-width="1"/>
  <rect x="482" y="118" width="11" height="11" rx="2" fill="#1e293b" stroke="#2a3548" stroke-width="1"/>
  <rect x="482" y="132" width="11" height="11" rx="2" fill="#1e293b" stroke="#2a3548" stroke-width="1"/>
  <rect x="482" y="146" width="11" height="11" rx="2" fill="#1e293b" stroke="#2a3548" stroke-width="1"/>
  <rect x="496" y="62" width="11" height="11" rx="2" fill="#1e293b" stroke="#2a3548" stroke-width="1"/>
  <rect x="496" y="76" width="11" height="11" rx="2" fill="#1e293b" stroke="#2a3548" stroke-width="1"/>
  <rect x="496" y="90" width="11" height="11" rx="2" fill="#1e293b" stroke="#2a3548" stroke-width="1"/>
  <rect x="496" y="104" width="11" height="11" rx="2" fill="#1e293b" stroke="#2a3548" stroke-width="1"/>
  <rect x="496" y="118" width="11" height="11" rx="2" fill="#1e293b" stroke="#2a3548" stroke-width="1"/>
  <rect x="496" y="132" width="11" height="11" rx="2" fill="#1e293b" stroke="#2a3548" stroke-width="1"/>
  <rect x="496" y="146" width="11" height="11" rx="2" fill="#1e293b" stroke="#2a3548" stroke-width="1"/>
  <rect x="510" y="62" width="11" height="11" rx="2" fill="#1e293b" stroke="#2a3548" stroke-width="1"/>
  <rect x="510" y="76" width="11" height="11" rx="2" fill="#1e293b" stroke="#2a3548" stroke-width="1"/>
  <rect x="510" y="90" width="11" height="11" rx="2" fill="#1e293b" stroke="#2a3548" stroke-width="1"/>
  <rect x="510" y="104" width="11" height="11" rx="2" fill="#1e293b" stroke="#2a3548" stroke-width="1"/>
  <rect x="510" y="118" width="11" height="11" rx="2" fill="#1e293b" stroke="#2a3548" stroke-width="1"/>
  <rect x="510" y="132" width="11" height="11" rx="2" fill="#1e293b" stroke="#2a3548" stroke-width="1"/>
  <rect x="510" y="146" width="11" height="11" rx="2" fill="#1e293b" stroke="#2a3548" stroke-width="1"/>
  <rect x="524" y="62" width="11" height="11" rx="2" fill="#1e293b" stroke="#2a3548" stroke-width="1"/>
  <rect x="524" y="76" width="11" height="11" rx="2" fill="#1e293b" stroke="#2a3548" stroke-width="1"/>
  <rect x="524" y="90" width="11" height="11" rx="2" fill="#1e293b" stroke="#2a3548" stroke-width="1"/>
  <rect x="524" y="104" width="11" height="11" rx="2" fill="#1e293b" stroke="#2a3548" stroke-width="1"/>
  <rect x="524" y="118" width="11" height="11" rx="2" fill="#1e293b" stroke="#2a3548" stroke-width="1"/>
  <rect x="524" y="132" width="11" height="11" rx="2" fill="#1e293b" stroke="#2a3548" stroke-width="1"/>
  <rect x="524" y="146" width="11" height="11" rx="2" fill="#1e293b" stroke="#2a3548" stroke-width="1"/>
  <rect x="538" y="62" width="11" height="11" rx="2" fill="#1e293b" stroke="#2a3548" stroke-width="1"/>
  <rect x="538" y="76" width="11" height="11" rx="2" fill="#1e293b" stroke="#2a3548" stroke-width="1"/>
  <rect x="538" y="90" width="11" height="11" rx="2" fill="#1e293b" stroke="#2a3548" stroke-width="1"/>
  <rect x="538" y="104" width="11" height="11" rx="2" fill="#1e293b" stroke="#2a3548" stroke-width="1"/>
  <rect x="538" y="118" width="11" height="11" rx="2" fill="#1e293b" stroke="#2a3548" stroke-width="1"/>
  <rect x="538" y="132" width="11" height="11" rx="2" fill="#1e293b" stroke="#2a3548" stroke-width="1"/>
  <rect x="538" y="146" width="11" height="11" rx="2" fill="#1e293b" stroke="#2a3548" stroke-width="1"/>
  <rect x="552" y="62" width="11" height="11" rx="2" fill="#1e293b" stroke="#2a3548" stroke-width="1"/>
  <rect x="552" y="76" width="11" height="11" rx="2" fill="#1e293b" stroke="#2a3548" stroke-width="1"/>
  <rect x="552" y="90" width="11" height="11" rx="2" fill="#1e293b" stroke="#2a3548" stroke-width="1"/>
  <rect x="552" y="104" width="11" height="11" rx="2" fill="#1e293b" stroke="#2a3548" stroke-width="1"/>
  <rect x="552" y="118" width="11" height="11" rx="2" fill="#1e293b" stroke="#2a3548" stroke-width="1"/>
  <rect x="552" y="132" width="11" height="11" rx="2" fill="#1e293b" stroke="#2a3548" stroke-width="1"/>
  <rect x="552" y="146" width="11" height="11" rx="2" fill="#1e293b" stroke="#2a3548" stroke-width="1"/>
  <rect x="566" y="62" width="11" height="11" rx="2" fill="#1e293b" stroke="#2a3548" stroke-width="1"/>
  <rect x="566" y="76" width="11" height="11" rx="2" fill="#1e293b" stroke="#2a3548" stroke-width="1"/>
  <rect x="566" y="90" width="11" height="11" rx="2" fill="#1e293b" stroke="#2a3548" stroke-width="1"/>
  <rect x="566" y="104" width="11" height="11" rx="2" fill="#1e293b" stroke="#2a3548" stroke-width="1"/>
  <rect x="566" y="118" width="11" height="11" rx="2" fill="#1e293b" stroke="#2a3548" stroke-width="1"/>
  <rect x="566" y="132" width="11" height="11" rx="2" fill="#1e293b" stroke="#2a3548" stroke-width="1"/>
  <rect x="566" y="146" width="11" height="11" rx="2" fill="#1e293b" stroke="#2a3548" stroke-width="1"/>
  <rect x="580" y="62" width="11" height="11" rx="2" fill="#1e293b" stroke="#2a3548" stroke-width="1"/>
  <rect x="580" y="76" width="11" height="11" rx="2" fill="#1e293b" stroke="#2a3548" stroke-width="1"/>
  <rect x="580" y="90" width="11" height="11" rx="2" fill="#1e293b" stroke="#2a3548" stroke-width="1"/>
  <rect x="580" y="104" width="11" height="11" rx="2" fill="#1e293b" stroke="#2a3548" stroke-width="1"/>
  <rect x="580" y="118" width="11" height="11" rx="2" fill="#1e293b" stroke="#2a3548" stroke-width="1"/>
  <rect x="580" y="132" width="11" height="11" rx="2" fill="#1e293b" stroke="#2a3548" stroke-width="1"/>
  <rect x="580" y="146" width="11" height="11" rx="2" fill="#1e293b" stroke="#2a3548" stroke-width="1"/>
  <rect x="594" y="62" width="11" height="11" rx="2" fill="#1e293b" stroke="#2a3548" stroke-width="1"/>
  <rect x="594" y="76" width="11" height="11" rx="2" fill="#1e293b" stroke="#2a3548" stroke-width="1"/>
  <rect x="594" y="90" width="11" height="11" rx="2" fill="#1e293b" stroke="#2a3548" stroke-width="1"/>
  <rect x="594" y="104" width="11" height="11" rx="2" fill="#1e293b" stroke="#2a3548" stroke-width="1"/>
  <rect x="594" y="118" width="11" height="11" rx="2" fill="#1e293b" stroke="#2a3548" stroke-width="1"/>
  <rect x="594" y="132" width="11" height="11" rx="2" fill="#1e293b" stroke="#2a3548" stroke-width="1"/>
  <rect x="594" y="146" width="11" height="11" rx="2" fill="#1e293b" stroke="#2a3548" stroke-width="1"/>
  <rect x="608" y="62" width="11" height="11" rx="2" fill="#1e293b" stroke="#2a3548" stroke-width="1"/>
  <rect x="608" y="76" width="11" height="11" rx="2" fill="#1e293b" stroke="#2a3548" stroke-width="1"/>
  <rect x="608" y="90" width="11" height="11" rx="2" fill="#1e293b" stroke="#2a3548" stroke-width="1"/>
  <rect x="608" y="104" width="11" height="11" rx="2" fill="#1e293b" stroke="#2a3548" stroke-width="1"/>
  <rect x="608" y="118" width="11" height="11" rx="2" fill="#1e293b" stroke="#2a3548" stroke-width="1"/>
  <rect x="608" y="132" width="11" height="11" rx="2" fill="#1e293b" stroke="#2a3548" stroke-width="1"/>
  <rect x="608" y="146" width="11" height="11" rx="2" fill="#1e293b" stroke="#2a3548" stroke-width="1"/>
  <rect x="622" y="62" width="11" height="11" rx="2" fill="#1e293b" stroke="#2a3548" stroke-width="1"/>
  <rect x="622" y="76" width="11" height="11" rx="2" fill="#1e293b" stroke="#2a3548" stroke-width="1"/>
  <rect x="622" y="90" width="11" height="11" rx="2" fill="#1e293b" stroke="#2a3548" stroke-width="1"/>
  <rect x="622" y="104" width="11" height="11" rx="2" fill="#1e293b" stroke="#2a3548" stroke-width="1"/>
  <rect x="622" y="118" width="11" height="11" rx="2" fill="#1e293b" stroke="#2a3548" stroke-width="1"/>
  <rect x="622" y="132" width="11" height="11" rx="2" fill="#1e293b" stroke="#2a3548" stroke-width="1"/>
  <rect x="622" y="146" width="11" height="11" rx="2" fill="#1e293b" stroke="#2a3548" stroke-width="1"/>
  <rect x="636" y="62" width="11" height="11" rx="2" fill="#1e293b" stroke="#2a3548" stroke-width="1"/>
  <rect x="636" y="76" width="11" height="11" rx="2" fill="#1e293b" stroke="#2a3548" stroke-width="1"/>
  <rect x="636" y="90" width="11" height="11" rx="2" fill="#1e293b" stroke="#2a3548" stroke-width="1"/>
  <rect x="636" y="104" width="11" height="11" rx="2" fill="#1e293b" stroke="#2a3548" stroke-width="1"/>
  <rect x="636" y="118" width="11" height="11" rx="2" fill="#1e293b" stroke="#2a3548" stroke-width="1"/>
  <rect x="636" y="132" width="11" height="11" rx="2" fill="#1e293b" stroke="#2a3548" stroke-width="1"/>
  <rect x="636" y="146" width="11" height="11" rx="2" fill="#1e293b" stroke="#2a3548" stroke-width="1"/>
  <rect x="650" y="62" width="11" height="11" rx="2" fill="#1e293b" stroke="#2a3548" stroke-width="1"/>
  <rect x="650" y="76" width="11" height="11" rx="2" fill="#1e293b" stroke="#2a3548" stroke-width="1"/>
  <rect x="650" y="90" width="11" height="11" rx="2" fill="#1e293b" stroke="#2a3548" stroke-width="1"/>
  <rect x="650" y="104" width="11" height="11" rx="2" fill="#1e293b" stroke="#2a3548" stroke-width="1"/>
  <rect x="650" y="118" width="11" height="11" rx="2" fill="#1e293b" stroke="#2a3548" stroke-width="1"/>
  <rect x="650" y="132" width="11" height="11" rx="2" fill="#1e293b" stroke="#2a3548" stroke-width="1"/>
  <rect x="650" y="146" width="11" height="11" rx="2" fill="#1e293b" stroke="#2a3548" stroke-width="1"/>
  <rect x="664" y="62" width="11" height="11" rx="2" fill="#1e293b" stroke="#2a3548" stroke-width="1"/>
  <rect x="664" y="76" width="11" height="11" rx="2" fill="#1e293b" stroke="#2a3548" stroke-width="1"/>
  <rect x="664" y="90" width="11" height="11" rx="2" fill="#1e293b" stroke="#2a3548" stroke-width="1"/>
  <rect x="664" y="104" width="11" height="11" rx="2" fill="#1e293b" stroke="#2a3548" stroke-width="1"/>
  <rect x="664" y="118" width="11" height="11" rx="2" fill="#1e293b" stroke="#2a3548" stroke-width="1"/>
  <rect x="664" y="132" width="11" height="11" rx="2" fill="#1e293b" stroke="#2a3548" stroke-width="1"/>
  <rect x="664" y="146" width="11" height="11" rx="2" fill="#1e293b" stroke="#2a3548" stroke-width="1"/>
  <rect x="678" y="62" width="11" height="11" rx="2" fill="#1e293b" stroke="#2a3548" stroke-width="1"/>
  <rect x="678" y="76" width="11" height="11" rx="2" fill="#1e293b" stroke="#2a3548" stroke-width="1"/>
  <rect x="678" y="90" width="11" height="11" rx="2" fill="#1e293b" stroke="#2a3548" stroke-width="1"/>
  <rect x="678" y="104" width="11" height="11" rx="2" fill="#1e293b" stroke="#2a3548" stroke-width="1"/>
  <rect x="678" y="118" width="11" height="11" rx="2" fill="#1e293b" stroke="#2a3548" stroke-width="1"/>
  <rect x="678" y="132" width="11" height="11" rx="2" fill="#1e293b" stroke="#2a3548" stroke-width="1"/>
  <rect x="678" y="146" width="11" height="11" rx="2" fill="#1e293b" stroke="#2a3548" stroke-width="1"/>
  <rect x="692" y="62" width="11" height="11" rx="2" fill="#1e293b" stroke="#2a3548" stroke-width="1"/>
  <rect x="692" y="76" width="11" height="11" rx="2" fill="#1e293b" stroke="#2a3548" stroke-width="1"/>
  <rect x="692" y="90" width="11" height="11" rx="2" fill="#1e293b" stroke="#2a3548" stroke-width="1"/>
  <rect x="692" y="104" width="11" height="11" rx="2" fill="#1e293b" stroke="#2a3548" stroke-width="1"/>
  <rect x="692" y="118" width="11" height="11" rx="2" fill="#1e293b" stroke="#2a3548" stroke-width="1"/>
  <rect x="692" y="132" width="11" height="11" rx="2" fill="#1e293b" stroke="#2a3548" stroke-width="1"/>
  <rect x="692" y="146" width="11" height="11" rx="2" fill="#1e293b" stroke="#2a3548" stroke-width="1"/>
  <rect x="706" y="62" width="11" height="11" rx="2" fill="#1e293b" stroke="#2a3548" stroke-width="1"/>
  <rect x="706" y="76" width="11" height="11" rx="2" fill="#1e293b" stroke="#2a3548" stroke-width="1"/>
  <rect x="706" y="90" width="11" height="11" rx="2" fill="#1e293b" stroke="#2a3548" stroke-width="1"/>
  <rect x="706" y="104" width="11" height="11" rx="2" fill="#1e293b" stroke="#2a3548" stroke-width="1"/>
  <rect x="706" y="118" width="11" height="11" rx="2" fill="#1e293b" stroke="#2a3548" stroke-width="1"/>
  <rect x="706" y="132" width="11" height="11" rx="2" fill="#1e293b" stroke="#2a3548" stroke-width="1"/>
  <rect x="706" y="146" width="11" height="11" rx="2" fill="#1e293b" stroke="#2a3548" stroke-width="1"/>
  <rect x="720" y="62" width="11" height="11" rx="2" fill="#1e293b" stroke="#2a3548" stroke-width="1"/>
  <rect x="720" y="76" width="11" height="11" rx="2" fill="#1e293b" stroke="#2a3548" stroke-width="1"/>
  <rect x="720" y="90" width="11" height="11" rx="2" fill="#1e293b" stroke="#2a3548" stroke-width="1"/>
  <rect x="720" y="104" width="11" height="11" rx="2" fill="#4c3d8f" stroke="#4c3d8f" stroke-width="1"/>
  <rect x="720" y="118" width="11" height="11" rx="2" fill="#1e293b" stroke="#2a3548" stroke-width="1"/>
  <rect x="720" y="132" width="11" height="11" rx="2" fill="#6d56c8" stroke="#6d56c8" stroke-width="1"/>
  <rect x="720" y="146" width="11" height="11" rx="2" fill="#1e293b" stroke="#2a3548" stroke-width="1"/>
  <rect x="734" y="62" width="11" height="11" rx="2" fill="#1e293b" stroke="#2a3548" stroke-width="1"/>
  <rect x="734" y="76" width="11" height="11" rx="2" fill="#4c3d8f" stroke="#4c3d8f" stroke-width="1"/>
  <rect x="734" y="90" width="11" height="11" rx="2" fill="#6d56c8" stroke="#6d56c8" stroke-width="1"/>
  <rect x="734" y="104" width="11" height="11" rx="2" fill="#6d56c8" stroke="#6d56c8" stroke-width="1"/>
  <rect x="734" y="118" width="11" height="11" rx="2" fill="#a78bfa" stroke="#a78bfa" stroke-width="1"/>
  <rect x="734" y="132" width="11" height="11" rx="2" fill="#1e293b" stroke="#2a3548" stroke-width="1"/>
  <rect x="734" y="146" width="11" height="11" rx="2" fill="#1e293b" stroke="#2a3548" stroke-width="1"/>
  <text x="20" y="171" fill="#94a3b8" font-family="Segoe UI, Helvetica, Arial, sans-serif" font-size="10">Menos</text>
  <rect x="58" y="162" width="10" height="10" rx="2" fill="#1e293b" stroke="#1e293b" stroke-width="1"/>
  <rect x="72" y="162" width="10" height="10" rx="2" fill="#4c3d8f" stroke="#4c3d8f" stroke-width="1"/>
  <rect x="86" y="162" width="10" height="10" rx="2" fill="#6d56c8" stroke="#6d56c8" stroke-width="1"/>
  <rect x="100" y="162" width="10" height="10" rx="2" fill="#8b5cf6" stroke="#8b5cf6" stroke-width="1"/>
  <rect x="114" y="162" width="10" height="10" rx="2" fill="#a78bfa" stroke="#a78bfa" stroke-width="1"/>
  <text x="134" y="171" fill="#94a3b8" font-family="Segoe UI, Helvetica, Arial, sans-serif" font-size="10">Mais</text>
</svg>
